<svg fill="#000000" xmlns="http://www.w3.org/2000/svg" viewBox="0 0 64 64" width="64px" height="64px"><path d="M 31.488281 2 C 24.800781 1.878906 18.332031 4.046875 13.015625 8.25 C 6.9375 13.058594 3.09375 19.9375 2.195313 27.632813 C 1.296875 35.328125 3.449219 42.910156 8.25 48.984375 C 13.054688 55.0625 19.9375 58.90625 27.632813 59.804688 C 28.777344 59.9375 29.921875 60.003906 31.058594 60.003906 C 37.550781 60.003906 43.8125 57.835938 48.984375 53.75 C 55.0625 48.941406 58.902344 42.058594 59.800781 34.367188 C 60.703125 26.671875 58.550781 19.089844 53.75 13.015625 C 48.941406 6.9375 42.0625 3.09375 34.367188 2.195313 C 33.40625 2.082031 32.445313 2.019531 31.488281 2 Z M 30.945313 3.996094 C 32.003906 3.996094 33.070313 4.058594 34.136719 4.183594 C 48.921875 5.914063 59.546875 19.351563 57.816406 34.136719 C 56.980469 41.300781 53.402344 47.707031 47.746094 52.179688 C 42.085938 56.652344 35.023438 58.660156 27.863281 57.816406 C 13.078125 56.089844 2.453125 42.648438 4.183594 27.863281 C 5.019531 20.699219 8.597656 14.292969 14.253906 9.820313 C 19.070313 6.011719 24.898438 3.996094 30.945313 3.996094 Z M 34.125 9.117188 C 33.996094 9.097656 33.863281 9.105469 33.730469 9.140625 C 33.195313 9.277344 32.871094 9.820313 33.003906 10.355469 C 33.8125 13.535156 32.214844 14.941406 29.324219 17.160156 C 27.621094 18.46875 25.691406 19.953125 24.546875 22.210938 C 22.21875 27.242188 26.984375 30.722656 28.546875 31.867188 C 28.726563 31.996094 28.933594 32.0625 29.136719 32.0625 C 29.445313 32.0625 29.75 31.917969 29.945313 31.652344 C 30.269531 31.203125 30.175781 30.578125 29.730469 30.253906 C 26.265625 27.722656 25.226563 25.5 26.34375 23.082031 C 27.269531 21.261719 28.933594 19.984375 30.542969 18.75 C 33.152344 16.746094 36.113281 14.472656 34.941406 9.863281 C 34.839844 9.460938 34.507813 9.179688 34.125 9.117188 Z M 39.0625 17.167969 C 38.9375 17.148438 38.800781 17.152344 38.667969 17.1875 C 38.394531 17.253906 31.929688 18.90625 29.8125 22.597656 C 29.09375 23.847656 28.933594 25.179688 29.332031 26.558594 C 29.460938 26.996094 29.859375 27.28125 30.292969 27.28125 C 30.386719 27.28125 30.480469 27.265625 30.574219 27.238281 C 31.101563 27.085938 31.40625 26.53125 31.253906 26 C 31.007813 25.152344 31.101563 24.363281 31.546875 23.59375 C 32.949219 21.144531 37.511719 19.539063 39.152344 19.125 C 39.6875 18.992188 40.015625 18.449219 39.878906 17.914063 C 39.78125 17.511719 39.449219 17.226563 39.0625 17.167969 Z M 14.109375 17.230469 C 13.855469 17.269531 13.613281 17.402344 13.449219 17.621094 C 13.121094 18.0625 13.210938 18.691406 13.65625 19.019531 L 15.257813 20.214844 C 15.4375 20.347656 15.648438 20.410156 15.855469 20.410156 C 16.160156 20.410156 16.460938 20.273438 16.65625 20.011719 C 16.984375 19.570313 16.894531 18.941406 16.453125 18.609375 L 14.847656 17.417969 C 14.625 17.253906 14.359375 17.191406 14.109375 17.230469 Z M 49.847656 19.40625 C 49.722656 19.421875 49.59375 19.464844 49.472656 19.535156 C 49 19.820313 48.84375 20.433594 49.125 20.90625 C 49.515625 21.5625 49.875 22.246094 50.1875 22.9375 C 50.359375 23.304688 50.722656 23.523438 51.101563 23.523438 C 51.242188 23.523438 51.382813 23.496094 51.515625 23.433594 C 52.019531 23.203125 52.242188 22.613281 52.011719 22.109375 C 51.664063 21.347656 51.273438 20.601563 50.84375 19.886719 C 50.632813 19.527344 50.234375 19.351563 49.847656 19.40625 Z M 11.496094 22.117188 C 11.105469 22.125 10.738281 22.363281 10.589844 22.75 C 10.382813 23.265625 10.632813 23.84375 11.144531 24.046875 L 13.003906 24.785156 C 13.125 24.835938 13.25 24.859375 13.375 24.859375 C 13.769531 24.859375 14.148438 24.621094 14.304688 24.226563 C 14.507813 23.710938 14.257813 23.132813 13.746094 22.925781 L 11.886719 22.1875 C 11.757813 22.136719 11.625 22.113281 11.496094 22.117188 Z M 52.667969 25.652344 C 52.539063 25.628906 52.402344 25.636719 52.269531 25.667969 C 51.734375 25.792969 51.398438 26.328125 51.523438 26.867188 C 52.347656 30.414063 52.238281 34.125 51.214844 37.601563 C 51.058594 38.128906 51.359375 38.6875 51.890625 38.84375 C 51.984375 38.871094 52.078125 38.886719 52.171875 38.886719 C 52.605469 38.886719 53.003906 38.605469 53.128906 38.167969 C 54.253906 34.359375 54.371094 30.296875 53.46875 26.414063 C 53.375 26.011719 53.050781 25.71875 52.667969 25.652344 Z M 10.261719 27.566406 C 9.710938 27.503906 9.214844 27.894531 9.148438 28.445313 C 9.085938 28.992188 9.476563 29.488281 10.027344 29.554688 L 12.011719 29.785156 C 12.050781 29.792969 12.09375 29.796875 12.128906 29.796875 C 12.628906 29.796875 13.0625 29.417969 13.121094 28.910156 C 13.183594 28.359375 12.792969 27.863281 12.246094 27.800781 Z M 31.933594 27.953125 C 31.679688 27.933594 31.417969 28.011719 31.207031 28.191406 C 30.789063 28.554688 30.746094 29.1875 31.109375 29.605469 C 31.710938 30.296875 31.753906 30.953125 31.25 31.722656 C 30.949219 32.1875 31.078125 32.804688 31.539063 33.109375 C 31.707031 33.21875 31.898438 33.269531 32.085938 33.269531 C 32.410156 33.269531 32.734375 33.113281 32.921875 32.820313 C 33.914063 31.308594 33.800781 29.65625 32.617188 28.292969 C 32.4375 28.082031 32.1875 27.96875 31.933594 27.953125 Z M 41.910156 30.730469 C 41.261719 30.710938 40.589844 30.816406 39.933594 31.046875 C 39.410156 31.230469 39.136719 31.800781 39.316406 32.320313 C 39.5 32.839844 40.074219 33.117188 40.59375 32.933594 C 41.875 32.480469 42.902344 32.832031 43.433594 33.308594 C 43.707031 33.554688 44.140625 34.085938 43.953125 34.890625 C 43.640625 36.273438 41.742188 37.585938 38.886719 38.402344 C 38.355469 38.550781 38.046875 39.105469 38.199219 39.636719 C 38.324219 40.074219 38.726563 40.359375 39.160156 40.359375 C 39.25 40.359375 39.34375 40.347656 39.4375 40.324219 C 44.394531 38.910156 45.617188 36.59375 45.90625 35.34375 C 46.207031 34.039063 45.78125 32.722656 44.765625 31.816406 C 44 31.132813 42.988281 30.761719 41.910156 30.730469 Z M 25.589844 30.796875 C 25.40625 30.820313 21.6875 30.808594 18.859375 32.414063 C 17.59375 33.195313 17.875 34.132813 17.992188 34.402344 C 18.3125 35.140625 19.585938 35.644531 21.390625 35.9375 C 20.667969 36.582031 20.628906 37.246094 20.792969 37.769531 C 21.027344 38.527344 21.898438 39.132813 23.175781 39.5625 C 22.710938 39.894531 22.425781 40.277344 22.332031 40.730469 C 22.253906 41.09375 22.25 41.8125 23.066406 42.484375 C 24.140625 43.363281 26.648438 44.015625 29.601563 44.015625 C 31.945313 44.015625 34.574219 43.605469 36.984375 42.570313 C 37.492188 42.351563 37.730469 41.765625 37.511719 41.257813 C 37.292969 40.75 36.703125 40.511719 36.199219 40.734375 C 31.320313 42.820313 25.859375 41.9375 24.515625 41.082031 C 24.699219 40.988281 25.003906 40.859375 25.484375 40.726563 C 25.5 40.722656 26.65625 40.371094 27.871094 40.363281 C 27.921875 40.363281 27.96875 40.339844 28.019531 40.332031 C 28.363281 40.34375 28.710938 40.355469 29.066406 40.355469 C 31.703125 40.355469 34.609375 39.996094 37.238281 39.226563 C 37.769531 39.070313 38.074219 38.515625 37.917969 37.984375 C 37.761719 37.457031 37.207031 37.152344 36.675781 37.308594 C 30.300781 39.171875 24.191406 38.160156 22.878906 37.300781 C 23.078125 37.167969 23.449219 36.96875 24.125 36.742188 C 24.523438 36.617188 25.738281 36.296875 26.621094 36.28125 C 26.625 36.28125 26.628906 36.28125 26.636719 36.28125 C 30.621094 36.261719 35.109375 35.765625 38.09375 34.964844 C 38.628906 34.820313 38.945313 34.273438 38.800781 33.738281 C 38.660156 33.207031 38.109375 32.886719 37.578125 33.03125 C 34.105469 33.964844 30.042969 34.300781 26.660156 34.296875 C 26.636719 34.296875 26.617188 34.285156 26.59375 34.28125 C 26.519531 34.285156 26.4375 34.292969 26.359375 34.296875 C 23.839844 34.28125 21.726563 34.074219 20.574219 33.789063 C 22.816406 32.808594 25.554688 32.796875 25.585938 32.796875 C 26.136719 32.796875 26.585938 32.351563 26.585938 31.796875 C 26.585938 31.246094 26.140625 30.800781 25.589844 30.796875 Z M 12.058594 32.894531 L 10.078125 33.183594 C 9.53125 33.261719 9.15625 33.769531 9.234375 34.316406 C 9.308594 34.8125 9.734375 35.171875 10.222656 35.171875 C 10.269531 35.171875 10.316406 35.167969 10.367188 35.160156 L 12.347656 34.871094 C 12.894531 34.792969 13.269531 34.285156 13.191406 33.738281 C 13.109375 33.191406 12.597656 32.804688 12.058594 32.894531 Z M 13.582031 37.78125 C 13.453125 37.78125 13.320313 37.808594 13.195313 37.863281 L 11.359375 38.65625 C 10.851563 38.875 10.617188 39.460938 10.835938 39.96875 C 11 40.347656 11.367188 40.574219 11.753906 40.574219 C 11.886719 40.574219 12.019531 40.546875 12.152344 40.488281 L 13.988281 39.699219 C 14.496094 39.476563 14.730469 38.890625 14.511719 38.386719 C 14.34375 38.003906 13.972656 37.777344 13.582031 37.78125 Z M 21 41.503906 C 19.351563 41.378906 17.136719 42.066406 16.078125 42.699219 C 14.847656 43.4375 14.671875 44.242188 14.738281 44.785156 C 14.90625 46.113281 16.625 46.628906 17.234375 46.8125 C 20.847656 47.71875 24.660156 48.097656 28.238281 48.097656 C 36.175781 48.101563 42.933594 46.230469 43.671875 44.109375 C 43.90625 43.429688 43.714844 42.503906 42.472656 41.941406 C 41.972656 41.714844 41.378906 41.9375 41.152344 42.441406 C 40.945313 42.902344 41.113281 43.433594 41.523438 43.699219 C 39.492188 45.25 28.5625 47.59375 17.765625 44.886719 C 17.324219 44.75 17.050781 44.628906 16.890625 44.539063 C 17.730469 43.867188 20.550781 43.1875 21.246094 43.566406 C 21.695313 43.878906 22.316406 43.769531 22.632813 43.324219 C 22.949219 42.871094 22.839844 42.246094 22.390625 41.925781 C 22.03125 41.675781 21.546875 41.546875 21 41.503906 Z M 43.71875 45.171875 C 43.148438 45.136719 42.6875 45.542969 42.640625 46.09375 C 42.523438 47.632813 35.769531 49.441406 25.453125 48.78125 C 24.90625 48.769531 24.429688 49.167969 24.390625 49.71875 C 24.359375 50.269531 24.773438 50.742188 25.328125 50.78125 C 25.550781 50.792969 27.21875 50.894531 29.496094 50.894531 C 35.085938 50.894531 44.324219 50.28125 44.636719 46.25 C 44.679688 45.695313 44.269531 45.214844 43.71875 45.171875 Z"/></svg>